<?xml version="1.0" encoding="utf-8"?>
<!-- Generator: Adobe Illustrator 19.2.1, SVG Export Plug-In . SVG Version: 6.00 Build 0)  -->
<svg version="1.1" id="layer" xmlns="http://www.w3.org/2000/svg" xmlns:xlink="http://www.w3.org/1999/xlink" x="0px" y="0px"
	 viewBox="0 0 652 652" style="enable-background:new 0 0 652 652;" xml:space="preserve">
<style type="text/css">
	.st0{fill:#231815;}
	.st1{fill:#C8D800;}
	.st2{fill:#00A2D1;}
	.st3{fill:#FFFFFF;}
	.st4{fill:#D50078;}
	.st5{fill:#F9BE00;}
</style>
<g>
	<path class="st0" d="M579,324.6l3.6-9.3l3.5,9.3H579z M580.9,310.5l-10,22.9h4.6l2.1-5.2h9.9l2.1,5.2h4.7l-9.9-22.9H580.9z
		 M529.3,351.6c1.1,0,2.1,0.1,3.2,0.3c1.1,0.2,2,0.6,2.9,1.2c0.8,0.6,1.5,1.4,2.1,2.4c0.5,1,0.8,2.4,0.8,4c0,1.6-0.3,2.8-0.8,3.8
		c-0.5,1-1.2,1.8-2.1,2.4c-0.9,0.6-1.8,1-2.9,1.3c-1.1,0.2-2.1,0.4-3.2,0.4h-3.4v-15.9H529.3z M529.9,348.1h-8.1V371h8.1
		c1.5,0,3-0.2,4.5-0.7c1.5-0.4,2.9-1.1,4.1-2.1s2.2-2.1,2.9-3.6s1.1-3.2,1.1-5.2c0-2.2-0.4-4-1.1-5.4c-0.8-1.5-1.7-2.6-2.9-3.5
		c-1.2-0.9-2.6-1.5-4.1-1.9C532.9,348.3,531.4,348.1,529.9,348.1 M539,324.6h-7.1l3.6-9.3L539,324.6z M542.6,333.4h4.7l-9.9-22.9
		h-3.5l-10,22.9h4.6l2.1-5.2h9.9L542.6,333.4z M501,362.2l3.6-9.3l3.5,9.3H501z M502.9,348.1l-10,22.9h4.6l2.1-5.2h9.9l2.1,5.2h4.7
		l-9.9-22.9H502.9z M438.8,351.5c0.6,0,1.2,0,1.8,0.1c0.6,0.1,1.1,0.2,1.6,0.5c0.5,0.2,0.8,0.6,1.1,1c0.3,0.4,0.4,1,0.4,1.6
		c0,0.7-0.1,1.3-0.4,1.7c-0.3,0.4-0.7,0.8-1.1,1c-0.5,0.2-1,0.4-1.6,0.5c-0.6,0.1-1.2,0.1-1.9,0.1h-2.9v-6.6H438.8z M439.2,348.1
		h-7.5V371h4.1v-9.5h3.1c1.2,0,2.4-0.1,3.4-0.4c1.1-0.2,2-0.6,2.8-1.1c0.8-0.5,1.4-1.2,1.9-2.1c0.5-0.9,0.7-1.9,0.7-3.2
		c0-1.2-0.2-2.2-0.6-3c-0.4-0.8-1-1.5-1.7-2.1c-0.8-0.5-1.7-0.9-2.7-1.2C441.7,348.2,440.6,348.1,439.2,348.1 M358.5,348.1h-4.1V371
		h4.1v-11.5h0.1l10.1,11.5h5.7L363,358.6l10.7-10.6h-5.5l-9.6,9.9h-0.1V348.1z M346.2,310.5h-4.1v22.9h4.1v-11.5h0.1l10.1,11.5h5.7
		L350.7,321l10.7-10.6h-5.5l-9.6,9.9h-0.1V310.5z M294.3,362.2l3.6-9.3l3.5,9.3H294.3z M296.3,348.1l-10,22.9h4.6l2.1-5.2h9.9
		l2.1,5.2h4.7l-9.9-22.9H296.3z M285.2,348.1H267v3.6h7V371h4.1v-19.3h7V348.1z M249.3,365.6l-2.9,2.7c0.9,1.1,2.1,1.9,3.5,2.4
		c1.4,0.6,2.9,0.8,4.4,0.8c1.1,0,2.2-0.2,3.2-0.5c1-0.3,1.9-0.8,2.7-1.4c0.8-0.6,1.4-1.4,1.8-2.3s0.7-2,0.7-3.2
		c0-1.1-0.2-2.1-0.6-2.8c-0.4-0.8-1-1.4-1.6-1.9c-0.7-0.5-1.4-0.9-2.2-1.2c-0.8-0.3-1.6-0.6-2.3-0.8c-0.7-0.2-1.2-0.4-1.8-0.6
		c-0.5-0.2-1-0.4-1.4-0.7s-0.7-0.6-0.9-0.9c-0.2-0.4-0.3-0.8-0.3-1.3c0-0.6,0.1-1,0.4-1.4c0.2-0.4,0.6-0.7,1-1
		c0.4-0.2,0.8-0.4,1.3-0.6c0.5-0.1,1-0.2,1.4-0.2c0.8,0,1.6,0.2,2.4,0.6c0.8,0.4,1.4,0.8,1.8,1.4l2.7-2.9c-0.9-0.8-1.9-1.4-3.1-1.8
		c-1.2-0.4-2.4-0.6-3.5-0.6c-1,0-2.1,0.1-3.1,0.4c-1,0.3-1.9,0.7-2.7,1.2s-1.4,1.2-1.9,2.1c-0.5,0.8-0.7,1.8-0.7,3
		c0,1.1,0.2,2,0.5,2.7c0.3,0.7,0.8,1.3,1.3,1.8c0.6,0.5,1.2,0.9,1.9,1.2c0.7,0.3,1.4,0.6,2.1,0.8c0.7,0.2,1.4,0.5,2,0.7
		c0.6,0.2,1.2,0.5,1.7,0.8c0.5,0.3,0.9,0.6,1.1,1c0.3,0.4,0.4,0.9,0.4,1.5c0,0.6-0.1,1.1-0.4,1.6c-0.2,0.4-0.6,0.8-1,1.1
		c-0.4,0.3-0.8,0.5-1.3,0.6c-0.5,0.1-1,0.2-1.5,0.2c-0.9,0-1.8-0.2-2.8-0.7C250.6,367,249.9,366.3,249.3,365.6 M248.1,333.4h4.1
		v-22.9h-4.1V333.4z M252.1,287.7c-0.4-1-0.6-2.2-0.6-3.4c0-1.2,0.2-2.3,0.6-3.3c0.4-1,0.9-1.9,1.6-2.7c0.7-0.8,1.5-1.3,2.5-1.8
		c1-0.4,2-0.6,3.2-0.6c0.9,0,1.9,0.2,2.9,0.6c1,0.4,1.8,1,2.4,1.8l3.1-2.5c-0.5-0.6-1-1.1-1.7-1.6c-0.7-0.4-1.3-0.8-2.1-1.1
		s-1.5-0.5-2.3-0.7c-0.8-0.1-1.6-0.2-2.3-0.2c-1.8,0-3.4,0.3-4.9,0.8c-1.5,0.6-2.8,1.4-3.9,2.4c-1.1,1-2,2.3-2.6,3.8
		c-0.6,1.5-1,3.1-1,5c0,1.8,0.3,3.4,0.9,4.9c0.6,1.5,1.4,2.7,2.5,3.8c1.1,1.1,2.4,1.9,3.9,2.5c1.5,0.6,3.1,0.9,4.9,0.9
		c2,0,3.7-0.4,5.1-1.1c1.5-0.7,2.7-1.7,3.7-3l-3.3-2.3c-0.6,0.8-1.3,1.4-2.3,1.9c-0.9,0.5-2,0.7-3.3,0.7c-1.2,0-2.3-0.2-3.2-0.6
		c-1-0.4-1.8-1-2.4-1.7C253,289.6,252.4,288.7,252.1,287.7 M274.8,312.3c-0.9-0.8-1.9-1.4-3.1-1.9c-1.2-0.4-2.4-0.6-3.5-0.6
		c-1,0-2.1,0.1-3.1,0.4c-1,0.3-1.9,0.7-2.7,1.2s-1.4,1.2-1.9,2.1c-0.5,0.8-0.7,1.8-0.7,3c0,1.1,0.2,2,0.5,2.7
		c0.3,0.7,0.8,1.3,1.3,1.8c0.6,0.5,1.2,0.9,1.9,1.2c0.7,0.3,1.4,0.6,2.1,0.8c0.7,0.2,1.4,0.5,2,0.7c0.7,0.2,1.2,0.5,1.7,0.8
		c0.5,0.3,0.8,0.6,1.1,1c0.3,0.4,0.4,0.9,0.4,1.5c0,0.6-0.1,1.1-0.4,1.6c-0.2,0.4-0.6,0.8-1,1.1c-0.4,0.3-0.8,0.5-1.3,0.6
		c-0.5,0.1-1,0.2-1.5,0.2c-0.9,0-1.8-0.2-2.8-0.7c-0.9-0.4-1.7-1.1-2.2-1.8l-2.9,2.7c0.9,1.1,2.1,1.9,3.5,2.4
		c1.4,0.6,2.9,0.8,4.4,0.8c1.1,0,2.2-0.2,3.2-0.5c1-0.3,1.9-0.8,2.7-1.4c0.8-0.6,1.4-1.4,1.8-2.3c0.5-0.9,0.7-2,0.7-3.2
		c0-1.1-0.2-2.1-0.6-2.8c-0.4-0.8-1-1.4-1.6-1.9c-0.7-0.5-1.4-0.9-2.2-1.2c-0.8-0.3-1.6-0.6-2.3-0.8c-0.6-0.2-1.2-0.4-1.8-0.6
		c-0.5-0.2-1-0.4-1.4-0.7c-0.4-0.3-0.7-0.6-0.9-0.9c-0.2-0.4-0.3-0.8-0.3-1.3c0-0.6,0.1-1,0.4-1.4c0.2-0.4,0.6-0.7,1-1
		c0.4-0.2,0.8-0.4,1.3-0.6c0.5-0.1,0.9-0.2,1.4-0.2c0.8,0,1.6,0.2,2.4,0.6c0.8,0.4,1.4,0.8,1.8,1.4L274.8,312.3z M273.9,295.8h4.1
		v-22.9h-4.1V295.8z M286.4,310.5h-4.1v22.9h4.1V310.5z M295,276.4h7v-3.6h-18.1v3.6h7v19.3h4.1V276.4z M307.4,310.5l-4.7,7.8
		l-4.7-7.8h-4.9l7.1,10.7l-7.9,12.2h4.9l5.4-9l5.6,9h5.1l-8.2-12.1l7-10.8H307.4z M317.1,285.8l8.6-13H321l-5.8,9.6l-5.8-9.6h-5
		l8.6,13v9.9h4.1V285.8z M319.2,333.4H335v-3.6h-11.7v-6.5h10.5v-3.4h-10.5V314h11.1v-3.6h-15.2V333.4z M331.6,359.5
		c0,1.6-0.3,2.8-0.8,3.8c-0.5,1-1.2,1.8-2.1,2.4c-0.8,0.6-1.8,1-2.9,1.3c-1.1,0.2-2.1,0.4-3.2,0.4h-3.4v-15.9h3.4
		c1.1,0,2.1,0.1,3.2,0.3c1.1,0.2,2,0.6,2.9,1.2c0.9,0.6,1.6,1.4,2.1,2.4C331.3,356.5,331.6,357.9,331.6,359.5 M334.8,364.7
		c0.8-1.4,1.1-3.2,1.1-5.2c0-2.2-0.4-4-1.1-5.4c-0.8-1.5-1.7-2.6-2.9-3.5c-1.2-0.9-2.6-1.5-4.1-1.9c-1.5-0.4-3-0.6-4.5-0.6h-8.1V371
		h8.1c1.5,0,3-0.2,4.5-0.7c1.5-0.4,2.9-1.1,4.1-2.1C333.1,367.3,334.1,366.1,334.8,364.7 M360.5,284.2c0,1.2-0.2,2.4-0.6,3.4
		c-0.4,1-0.9,1.9-1.6,2.7c-0.7,0.8-1.5,1.3-2.5,1.8c-1,0.4-2,0.6-3.2,0.6s-2.2-0.2-3.2-0.6c-1-0.4-1.8-1-2.5-1.8
		c-0.7-0.8-1.2-1.6-1.6-2.7c-0.4-1-0.6-2.2-0.6-3.4c0-1.2,0.2-2.3,0.6-3.3c0.4-1,0.9-1.9,1.6-2.7c0.7-0.8,1.5-1.3,2.5-1.8
		c1-0.4,2-0.6,3.2-0.6c1.2,0,2.3,0.2,3.2,0.6c1,0.4,1.8,1,2.5,1.8c0.7,0.8,1.2,1.6,1.6,2.7C360.3,282,360.5,283.1,360.5,284.2
		 M364,289.2c0.6-1.5,0.9-3.1,0.9-4.9c0-1.8-0.3-3.5-0.9-5c-0.6-1.5-1.5-2.7-2.6-3.8c-1.1-1-2.4-1.8-3.9-2.4
		c-1.5-0.6-3.2-0.8-4.9-0.8c-1.8,0-3.4,0.3-4.9,0.8c-1.5,0.6-2.8,1.4-3.9,2.4c-1.1,1-1.9,2.3-2.6,3.8c-0.6,1.5-0.9,3.1-0.9,5
		c0,1.8,0.3,3.4,0.9,4.9c0.6,1.5,1.5,2.7,2.6,3.8c1.1,1.1,2.4,1.9,3.9,2.5c1.5,0.6,3.1,0.9,4.9,0.9c1.8,0,3.4-0.3,4.9-0.9
		c1.5-0.6,2.8-1.4,3.9-2.5C362.5,291.9,363.4,290.6,364,289.2 M376.2,276.4h10.7v-3.6h-14.8v22.9h4.1v-9.6h10.1v-3.4h-10.1V276.4z
		 M385.9,321.8c0,1.2-0.2,2.4-0.6,3.4c-0.4,1-0.9,1.9-1.6,2.7c-0.7,0.8-1.5,1.3-2.5,1.8c-1,0.4-2,0.6-3.2,0.6s-2.2-0.2-3.2-0.6
		c-1-0.4-1.8-1-2.5-1.8c-0.7-0.8-1.2-1.6-1.6-2.7c-0.4-1-0.6-2.1-0.6-3.4c0-1.2,0.2-2.3,0.6-3.3c0.4-1,0.9-1.9,1.6-2.7
		c0.7-0.8,1.5-1.3,2.5-1.8c1-0.4,2-0.7,3.2-0.7s2.3,0.2,3.2,0.7c1,0.4,1.8,1,2.5,1.8c0.7,0.8,1.2,1.6,1.6,2.7
		C385.7,319.6,385.9,320.7,385.9,321.8 M389.4,326.8c0.6-1.5,0.9-3.1,0.9-4.9c0-1.8-0.3-3.5-0.9-5c-0.6-1.5-1.5-2.7-2.6-3.8
		c-1.1-1-2.4-1.8-3.9-2.4c-1.5-0.6-3.2-0.8-5-0.8c-1.8,0-3.4,0.3-4.9,0.8c-1.5,0.6-2.8,1.4-3.9,2.4c-1.1,1-1.9,2.3-2.6,3.8
		s-0.9,3.1-0.9,5c0,1.8,0.3,3.4,0.9,4.9s1.5,2.8,2.6,3.8c1.1,1.1,2.4,1.9,3.9,2.5c1.5,0.6,3.1,0.9,4.9,0.9c1.8,0,3.4-0.3,5-0.9
		c1.5-0.6,2.8-1.4,3.9-2.5C387.9,329.5,388.8,328.2,389.4,326.8 M392,362.2h-7.1l3.6-9.3L392,362.2z M395.5,371h4.7l-9.9-22.9h-3.5
		l-10,22.9h4.6l2.1-5.2h9.9L395.5,371z M409.2,287.7c-0.4-1-0.6-2.2-0.6-3.4c0-1.2,0.2-2.3,0.6-3.3c0.4-1,0.9-1.9,1.6-2.7
		c0.7-0.8,1.5-1.3,2.5-1.8c1-0.4,2-0.6,3.2-0.6c0.9,0,1.9,0.2,2.8,0.6c1,0.4,1.8,1,2.4,1.8l3.1-2.5c-0.4-0.6-1-1.1-1.7-1.6
		c-0.6-0.4-1.3-0.8-2.1-1.1c-0.7-0.3-1.5-0.5-2.3-0.7c-0.8-0.1-1.6-0.2-2.3-0.2c-1.8,0-3.4,0.3-4.9,0.8c-1.5,0.6-2.8,1.4-3.9,2.4
		c-1.1,1-2,2.3-2.6,3.8c-0.6,1.5-1,3.1-1,5c0,1.8,0.3,3.4,0.9,4.9c0.6,1.5,1.4,2.7,2.5,3.8c1.1,1.1,2.4,1.9,3.9,2.5
		c1.5,0.6,3.1,0.9,4.9,0.9c2,0,3.7-0.4,5.1-1.1c1.5-0.7,2.7-1.7,3.7-3l-3.3-2.3c-0.6,0.8-1.3,1.4-2.3,1.9c-0.9,0.5-2,0.7-3.3,0.7
		c-1.2,0-2.3-0.2-3.2-0.6c-1-0.4-1.8-1-2.4-1.7C410,289.6,409.5,288.7,409.2,287.7 M412.6,317.7c-0.2-0.4-0.3-0.8-0.3-1.3
		c0-0.6,0.1-1,0.4-1.4c0.2-0.4,0.6-0.7,1-1c0.4-0.2,0.8-0.4,1.3-0.6c0.5-0.1,0.9-0.2,1.4-0.2c0.8,0,1.6,0.2,2.4,0.6
		c0.8,0.4,1.4,0.8,1.8,1.4l2.7-2.9c-0.9-0.8-1.9-1.4-3.1-1.9c-1.2-0.4-2.4-0.6-3.5-0.6c-1,0-2.1,0.1-3.1,0.4c-1,0.3-1.9,0.7-2.7,1.2
		s-1.4,1.2-1.9,2.1c-0.5,0.8-0.7,1.8-0.7,3c0,1.1,0.2,2,0.5,2.7c0.3,0.7,0.8,1.3,1.3,1.8c0.6,0.5,1.2,0.9,1.9,1.2
		c0.7,0.3,1.4,0.6,2.1,0.8c0.7,0.2,1.4,0.5,2,0.7c0.7,0.2,1.2,0.5,1.7,0.8c0.5,0.3,0.8,0.6,1.1,1c0.3,0.4,0.4,0.9,0.4,1.5
		c0,0.6-0.1,1.1-0.4,1.6c-0.2,0.4-0.6,0.8-1,1.1c-0.4,0.3-0.8,0.5-1.3,0.6c-0.5,0.1-1,0.2-1.5,0.2c-0.9,0-1.8-0.2-2.8-0.7
		c-0.9-0.4-1.7-1.1-2.2-1.8l-2.9,2.7c0.9,1.1,2.1,1.9,3.5,2.4c1.4,0.6,2.9,0.8,4.4,0.8c1.1,0,2.2-0.2,3.2-0.5c1-0.3,1.9-0.8,2.7-1.4
		c0.8-0.6,1.4-1.4,1.8-2.3c0.5-0.9,0.7-2,0.7-3.2c0-1.1-0.2-2.1-0.6-2.8c-0.4-0.8-1-1.4-1.6-1.9c-0.7-0.5-1.4-0.9-2.2-1.2
		c-0.8-0.3-1.6-0.6-2.3-0.8c-0.6-0.2-1.2-0.4-1.8-0.6c-0.5-0.2-1-0.4-1.4-0.7C413.1,318.4,412.8,318.1,412.6,317.7 M418,362.2h-7.1
		l3.6-9.3L418,362.2z M421.6,371h4.7l-9.9-22.9h-3.5l-10,22.9h4.6l2.1-5.2h9.9L421.6,371z M435.9,324.6l3.6-9.3l3.5,9.3H435.9z
		 M437.8,310.5l-10,22.9h4.6l2.1-5.2h9.9l2.1,5.2h4.7l-9.9-22.9H437.8z M443.3,287h-7.1l3.6-9.3L443.3,287z M446.9,295.8h4.7
		l-9.9-22.9h-3.5l-10,22.9h4.6l2.1-5.2h9.9L446.9,295.8z M454.8,351.2c-0.5,0.8-0.7,1.8-0.7,3c0,1.1,0.2,2,0.5,2.7
		c0.3,0.7,0.8,1.3,1.3,1.8c0.6,0.5,1.2,0.9,1.9,1.2c0.7,0.3,1.4,0.6,2.1,0.8c0.7,0.2,1.4,0.5,2,0.7c0.6,0.2,1.2,0.5,1.7,0.8
		c0.5,0.3,0.9,0.6,1.1,1c0.3,0.4,0.4,0.9,0.4,1.5c0,0.6-0.1,1.1-0.4,1.6c-0.2,0.4-0.6,0.8-1,1.1c-0.4,0.3-0.8,0.5-1.3,0.6
		c-0.5,0.1-1,0.2-1.5,0.2c-0.9,0-1.8-0.2-2.8-0.7c-0.9-0.4-1.7-1.1-2.2-1.8l-2.9,2.7c0.9,1.1,2.1,1.9,3.5,2.4
		c1.4,0.6,2.9,0.8,4.4,0.8c1.1,0,2.2-0.2,3.2-0.5c1-0.3,1.9-0.8,2.7-1.4c0.8-0.6,1.4-1.4,1.8-2.3c0.4-0.9,0.7-2,0.7-3.2
		c0-1.1-0.2-2.1-0.6-2.8c-0.4-0.8-1-1.4-1.6-1.9c-0.7-0.5-1.4-0.9-2.2-1.2c-0.8-0.3-1.6-0.6-2.3-0.8c-0.6-0.2-1.2-0.4-1.8-0.6
		c-0.5-0.2-1-0.4-1.4-0.7s-0.7-0.6-0.9-0.9c-0.2-0.4-0.3-0.8-0.3-1.3c0-0.6,0.1-1,0.4-1.4c0.2-0.4,0.6-0.7,1-1
		c0.4-0.2,0.8-0.4,1.3-0.6c0.5-0.1,0.9-0.2,1.4-0.2c0.8,0,1.6,0.2,2.4,0.6c0.8,0.4,1.4,0.8,1.8,1.4l2.7-2.9
		c-0.9-0.8-1.9-1.4-3.1-1.8c-1.2-0.4-2.4-0.6-3.5-0.6c-1,0-2.1,0.1-3.1,0.4c-1,0.3-1.9,0.7-2.7,1.2S455.2,350.4,454.8,351.2
		 M456.7,313.6c-0.5,0.8-0.7,1.8-0.7,3c0,1.1,0.2,2,0.5,2.7c0.3,0.7,0.8,1.3,1.3,1.8c0.6,0.5,1.2,0.9,1.9,1.2
		c0.7,0.3,1.4,0.6,2.1,0.8c0.7,0.2,1.4,0.5,2,0.7c0.7,0.2,1.2,0.5,1.7,0.8c0.5,0.3,0.8,0.6,1.1,1c0.3,0.4,0.4,0.9,0.4,1.5
		c0,0.6-0.1,1.1-0.4,1.6c-0.2,0.4-0.6,0.8-1,1.1c-0.4,0.3-0.8,0.5-1.3,0.6c-0.5,0.1-1,0.2-1.5,0.2c-0.9,0-1.8-0.2-2.8-0.7
		c-0.9-0.4-1.7-1.1-2.2-1.8l-2.9,2.7c0.9,1.1,2.1,1.9,3.5,2.4s2.9,0.8,4.4,0.8c1.1,0,2.2-0.2,3.2-0.5c1-0.3,1.9-0.8,2.7-1.4
		c0.8-0.6,1.4-1.4,1.8-2.3c0.5-0.9,0.7-2,0.7-3.2c0-1.1-0.2-2.1-0.6-2.8c-0.4-0.8-1-1.4-1.6-1.9c-0.7-0.5-1.4-0.9-2.2-1.2
		c-0.8-0.3-1.6-0.6-2.3-0.8c-0.6-0.2-1.2-0.4-1.8-0.6c-0.5-0.2-1-0.4-1.4-0.7c-0.4-0.3-0.7-0.6-0.9-0.9c-0.2-0.4-0.3-0.8-0.3-1.3
		c0-0.6,0.1-1,0.4-1.4c0.2-0.4,0.6-0.7,1-1c0.4-0.2,0.8-0.4,1.3-0.6c0.5-0.1,0.9-0.2,1.4-0.2c0.8,0,1.6,0.2,2.4,0.6
		c0.8,0.4,1.4,0.8,1.8,1.4l2.7-2.9c-0.9-0.8-1.9-1.4-3.1-1.9c-1.2-0.4-2.4-0.6-3.5-0.6c-1,0-2.1,0.1-3.1,0.4c-1,0.3-1.9,0.7-2.7,1.2
		C457.9,312.1,457.2,312.8,456.7,313.6 M469,279.5c0,0.7-0.1,1.2-0.4,1.7c-0.3,0.4-0.7,0.8-1.1,1c-0.5,0.2-1,0.4-1.6,0.5
		c-0.6,0.1-1.2,0.1-1.9,0.1h-2.8v-6.6h3c0.6,0,1.2,0,1.8,0.1c0.6,0.1,1.1,0.2,1.6,0.5c0.5,0.2,0.8,0.6,1.1,1
		C468.9,278.3,469,278.8,469,279.5 M472.5,282.7c0.5-0.9,0.7-1.9,0.7-3.2c0-1.2-0.2-2.2-0.6-3c-0.4-0.8-1-1.5-1.7-2.1
		c-0.8-0.5-1.7-0.9-2.7-1.2c-1.1-0.2-2.2-0.4-3.6-0.4H457v22.9h4.1v-9.5h3.1c1.2,0,2.3-0.1,3.4-0.4c1.1-0.2,2-0.6,2.8-1.2
		C471.3,284.3,472,283.6,472.5,282.7 M491.8,348.1h-18.1v3.6h7V371h4.1v-19.3h7V348.1z M493.7,310.5h-15.2v22.9h15.8v-3.6h-11.7
		v-6.5h10.5v-3.4h-10.5V314h11.1V310.5z M480,295.8h15.8v-3.6h-11.7v-6.5h10.5v-3.4h-10.5v-5.8h11.1v-3.6H480V295.8z M515.3,310.5
		l-9.6,9.9h-0.1v-9.9h-4.1v22.9h4.1v-11.5h0.1l10.1,11.5h5.7L510,321l10.7-10.6H515.3z M522.3,276.4h7v-3.6h-18.1v3.6h7v19.3h4.1
		V276.4z M553.3,284.2c0,1.2-0.2,2.4-0.6,3.4c-0.4,1-0.9,1.9-1.6,2.7c-0.7,0.8-1.5,1.3-2.5,1.8c-1,0.4-2,0.6-3.2,0.6
		c-1.2,0-2.2-0.2-3.2-0.6c-1-0.4-1.8-1-2.5-1.8c-0.7-0.8-1.2-1.6-1.6-2.7c-0.4-1-0.6-2.2-0.6-3.4c0-1.2,0.2-2.3,0.6-3.3
		c0.4-1,0.9-1.9,1.6-2.7c0.7-0.8,1.5-1.3,2.5-1.8c1-0.4,2-0.6,3.2-0.6c1.2,0,2.3,0.2,3.2,0.6c1,0.4,1.8,1,2.5,1.8
		c0.7,0.8,1.2,1.6,1.6,2.7C553.1,282,553.3,283.1,553.3,284.2 M556.8,289.2c0.6-1.5,0.9-3.1,0.9-4.9c0-1.8-0.3-3.5-0.9-5
		c-0.6-1.5-1.5-2.7-2.6-3.8c-1.1-1-2.4-1.8-3.9-2.4c-1.5-0.6-3.2-0.8-5-0.8c-1.8,0-3.4,0.3-4.9,0.8c-1.5,0.6-2.8,1.4-3.9,2.4
		c-1.1,1-1.9,2.3-2.6,3.8c-0.6,1.5-0.9,3.1-0.9,5c0,1.8,0.3,3.4,0.9,4.9c0.6,1.5,1.5,2.7,2.6,3.8c1.1,1.1,2.4,1.9,3.9,2.5
		c1.5,0.6,3.1,0.9,4.9,0.9c1.8,0,3.4-0.3,5-0.9c1.5-0.6,2.8-1.4,3.9-2.5C555.3,291.9,556.2,290.6,556.8,289.2 M563.2,314.5
		c0.5,0.2,0.8,0.6,1.1,1c0.3,0.4,0.4,1,0.4,1.6c0,0.7-0.1,1.2-0.4,1.7c-0.3,0.4-0.7,0.8-1.1,1c-0.5,0.2-1,0.4-1.6,0.5
		c-0.6,0.1-1.2,0.1-1.9,0.1h-2.9v-6.6h3c0.6,0,1.2,0,1.8,0.1C562.2,314.1,562.7,314.2,563.2,314.5 M563.8,310.8
		c-1.1-0.2-2.2-0.4-3.6-0.4h-7.5v22.9h4.1v-9.5h3.1c1.2,0,2.4-0.1,3.4-0.4c1.1-0.2,2-0.6,2.8-1.1c0.8-0.5,1.4-1.2,1.9-2.1
		c0.5-0.9,0.7-1.9,0.7-3.2c0-1.2-0.2-2.2-0.6-3c-0.4-0.8-1-1.5-1.7-2.1S564.8,311.1,563.8,310.8 M588,295.8l6.7-22.9h-4.3l-4.5,16.8
		h-0.1l-5-16.8h-4.2l-5.1,16.8h-0.1l-4.4-16.8h-4.5l6.7,22.9h4l5.4-17.2h0.1l5.4,17.2H588z M620.8,295.8v-22.9h-4.1V290h-0.1
		L606,272.9h-5.4v22.9h4.1v-17.7h0.1l10.9,17.7H620.8z"/>
	<polygon class="st1" points="102.9,226 91.9,245.1 72,233.5 72,256.6 50,256.6 29.8,291.7 40.7,310.7 20.8,322.2 40.8,333.7 
		29.8,352.8 50,387.8 72,387.8 72,410.9 91.9,399.3 102.9,418.4 143.4,418.4 154.4,399.3 174.4,410.9 174.4,387.8 196.4,387.8 
		216.6,352.8 205.6,333.7 225.6,322.2 205.6,310.7 216.6,291.6 196.4,256.6 174.4,256.6 174.4,233.6 154.4,245.1 143.4,226 	"/>
	<path class="st0" d="M196.5,322.2c0,40.5-32.8,73.3-73.3,73.3s-73.3-32.8-73.3-73.3c0-40.5,32.8-73.3,73.3-73.3
		S196.5,281.7,196.5,322.2"/>
	<polygon class="st2" points="192.1,307.7 178.4,299.8 186.7,285.5 170.2,285.5 170.2,269.8 145.1,255.3 131.4,263.2 123.2,248.9 
		114.9,263.2 101.3,255.3 76.2,269.8 76.2,285.5 59.7,285.5 67.9,299.8 54.3,307.7 54.3,336.7 67.9,344.6 59.7,358.9 76.2,358.9 
		76.2,374.6 101.3,389.1 114.9,381.3 123.2,395.5 131.4,381.3 145.1,389.1 170.2,374.6 170.2,358.9 186.7,358.9 178.4,344.6 
		192.1,336.7 	"/>
	<path class="st3" d="M149.4,367.7c-25.1,14.5-57.2,5.9-71.7-19.2c-14.5-25.1-5.9-57.2,19.2-71.8c25.1-14.5,57.2-5.9,71.7,19.2
		C183.2,321.1,174.6,353.2,149.4,367.7"/>
	<path class="st4" d="M165.5,316.3l5.6-9.8l-10.4-18h-11.3v-11.8l-10.2,5.9l-5.6-9.8h-20.8l-5.6,9.8l-10.2-5.9v11.8H85.6l-10.4,18
		l5.6,9.8l-10.2,5.9l10.2,5.9l-5.6,9.8l10.4,18h11.3l0,11.8l10.2-5.9l5.6,9.8h20.8l5.6-9.8l10.2,5.9v-11.8h11.3l10.4-18l-5.6-9.8
		l10.2-5.9L165.5,316.3z M160.8,322.2c0,20.8-16.8,37.6-37.6,37.6c-20.8,0-37.6-16.8-37.6-37.6c0-20.8,16.8-37.6,37.6-37.6
		C144,284.6,160.8,301.4,160.8,322.2"/>
	<path class="st5" d="M158.5,314.8l-7-4l4.2-7.3h-8.5l0-8.1l-12.9-7.4l-7,4l-4.2-7.3l-4.2,7.3l-7-4l-12.9,7.4v8.1h-8.5l4.2,7.3l-7,4
		v14.9l7,4l-4.2,7.3h8.5v8.1l12.9,7.4l7-4l4.2,7.3l4.2-7.3l7,4l12.9-7.4V341h8.5l-4.2-7.3l7-4V314.8z M136.7,345.5
		c-12.9,7.4-29.4,3-36.8-9.9c-7.4-12.9-3-29.4,9.9-36.8c12.9-7.4,29.4-3,36.8,9.9C154,321.6,149.6,338.1,136.7,345.5"/>
</g>
</svg>
